<?xml version="1.0" encoding="utf-8"?>
<!-- Generator: Adobe Illustrator 19.0.0, SVG Export Plug-In . SVG Version: 6.00 Build 0)  -->
<svg version="1.1" id="Camada_1" xmlns="http://www.w3.org/2000/svg" xmlns:xlink="http://www.w3.org/1999/xlink" x="0px" y="0px"
	 viewBox="0 0 1293.1 384" style="enable-background:new 0 0 1293.1 384;" xml:space="preserve">
<style type="text/css">
	.st0{clip-path:url(#SVGID_2_);}
</style>
<g>
	<defs>
		<rect id="SVGID_1_" width="1500" height="1500"/>
	</defs>
	<clipPath id="SVGID_2_">
		<use xlink:href="#SVGID_1_"  style="overflow:visible;"/>
	</clipPath>
	<path class="st0" d="M942.6,113.1h-0.7c-3.1,0-3.5-1.4-3.6-6.8V91.2l5.2,0c3.7,0.2,5.6,4.8,7.8,10c1.5,3.7,3.1,7.6,5.6,10.5
		c1.8,2.1,4.7,3.3,8.3,3.3h8.1v-1.8h-0.7c-4.6,0-8.2-4.3-9.9-6.8c-1.3-1.9-2.3-4-3.4-6c-2.1-4.1-4-7.9-7.6-10
		c6.1-1.7,9.7-6.1,9.7-12.1c0-8.9-7.9-12.9-15.2-12.9h-19.7v1.8h0.7c3.1,0,3.5,1.5,3.6,6.8v32.4c-0.1,5.3-0.5,6.8-3.6,6.8h-0.7v1.8
		h16.1V113.1z M938.3,74c0.1-5.4,0.5-6.8,3.6-6.8h2.2c3.7,0,9.2,3,9.2,11.1c0,8.7-5.8,11.1-9.2,11.1h-5.8V74z"/>
	<path class="st0" d="M987.2,110.5c4.3,3.3,9.7,5,15.5,5c0.9,0,1.8,0,2.7-0.1c6.9-0.6,13-3.4,17.2-8c4.4-4.8,6.4-11.1,5.8-18.1v0
		c-0.6-7-3.7-12.8-8.9-16.8c-4.9-3.8-11.4-5.5-18.3-4.9c-6.9,0.6-13,3.4-17.2,8c-4.4,4.8-6.4,11.1-5.8,18.1
		C978.9,100.8,982,106.6,987.2,110.5 M991.3,74.9c2.8-3.3,6.2-5.2,10.1-5.5c0.4,0,0.8-0.1,1.2-0.1c3.4,0,6.7,1.3,9.7,3.7
		c4.6,3.9,7.6,10,8.2,16.9v0c0.5,5.9-0.8,11.7-3.7,16.2c-2.9,4.4-6.9,7.1-11.5,7.5c-9.5,0.8-18-8.4-19.1-20.5
		C985.6,86.2,987.4,79.6,991.3,74.9"/>
	<path class="st0" d="M1060.7,115.5c0.7,0,1.4,0,2.1-0.1c7.6-0.5,11.7-3,15.1-5.7l0.3-0.2v-3l-1.2,1.1c-2.9,2.7-7.8,5.9-14.3,6
		c-9.9,0.3-18.1-8.6-19.2-20.5c-1.1-12.2,5.7-22.8,15.1-23.7c3.1-0.2,6.5,0.5,9.5,2.1c3.5,2.1,7.5,7.2,7.5,11.3v0.7h1.8V65.7h-1.8
		v0.7c0,1.6-0.2,2.6-0.6,2.9c-0.5,0.4-1.6,0.1-3.2-0.2c-3.7-0.9-9.1-1.9-13.3-1.6c-14.5,1.3-24.2,12.3-22.9,26.2
		C1036.8,106.8,1047,115.5,1060.7,115.5"/>
	<path class="st0" d="M1101.2,113.1h-0.7c-2.7,0-3.3-1.2-3.3-6.4V92.4h23.5v14.3c0,5.2-0.6,6.4-3.3,6.4h-0.7v1.8h15.3v-1.8h-0.7
		c-2.9,0-3.3-1.4-3.3-6.4V76.3c0.1-5,0.5-6.4,3.3-6.4h0.7V68h-15.3v1.8h0.7c2.7,0,3.3,1.2,3.3,6.4v14.4h-23.5V76.2
		c0-5.2,0.6-6.4,3.3-6.4h0.7V68h-15.3v1.8h0.7c2.9,0,3.3,1.4,3.3,6.4v30.5c-0.1,5-0.5,6.4-3.3,6.4h-0.7v1.8h15.3V113.1z"/>
	<path class="st0" d="M1151.7,113.1h-0.7c-0.9,0-1.7-0.4-2.2-1.2c-1.4-2-1.4-6.3,0-10.2c0.2-0.5,0.9-2.3,1.9-4.8h14.6l0.6,1.7
		c1.7,4.4,3.1,8.1,3.7,9.6c0.6,1.6,1.3,3.8,0.8,4.5c-0.2,0.3-0.9,0.5-1.9,0.5h-0.7v1.8h15.8v-1.8h-0.7c-3.5,0-5.2-4.1-6.8-8.2
		c-1.7-4.1-13.9-36-14-36.4l-0.2-0.5h-1.6l-13.9,35.5c-2.3,6-5.1,8.9-9.2,9.6l-0.6,0.1v1.7h15.3V113.1z M1158.1,78.1
		c1.2,3.2,3.9,10.2,6.5,17h-13.2C1153.4,90.2,1156,83.5,1158.1,78.1"/>
	<path class="st0" d="M971.4,146.3H971l-14.5,31.1l-16.9-31.1h-11.8v1.8h0.7c1.6,0,3.1,0.9,4.8,2.8v30.9c0,7.2-3.2,12.2-7.8,12.2
		h-0.7v1.8h18.8v-1.8h-0.7c-4.5,0-7.7-5-7.7-12.2v-28.1c3.5,6,12.5,22.5,17.6,31.8l0.2,0.4h1.5l16.3-34.8v36.1
		c-0.1,5.4-0.5,6.8-3.6,6.8h-0.7v1.8h16.1v-1.8h-0.7c-3.1,0-3.6-1.6-3.6-6.8V155c0-5.2,0.5-6.8,3.6-6.8h0.7v-1.8h-10.3H971.4z"/>
	<path class="st0" d="M1013,149.5l-0.2-0.5h-1.6l-13.9,35.5c-2.4,6-5.1,8.9-9.2,9.6l-0.6,0.1v1.7h15.3v-1.8h-0.7
		c-0.9,0-1.7-0.4-2.2-1.2c-1.4-2-1.4-6.3,0-10.2c0.2-0.5,0.9-2.3,1.9-4.8h14.6l0.7,1.8c1.6,4.3,3,8,3.6,9.5c0.6,1.6,1.3,3.8,0.8,4.5
		c-0.2,0.3-0.9,0.5-1.9,0.5h-0.7v1.8h15.8v-1.8h-0.7c-3.5,0-5.2-4.1-6.8-8.2C1025.3,181.8,1013.1,149.8,1013,149.5 M1002.5,176.1
		c1.9-4.9,4.5-11.6,6.6-17c1.2,3.2,3.9,10.2,6.5,17H1002.5z"/>
	<path class="st0" d="M1073.4,187.7c-1.2-1.8-2.2-3.8-3.2-5.7c-1.9-3.8-3.8-7.4-7.1-9.4c5.8-1.6,9.1-5.8,9.1-11.4
		c0-8.4-7.5-12.2-14.4-12.2h-18.6v1.8h0.7c2.9,0,3.3,1.4,3.3,6.4v30.5c-0.1,5-0.5,6.3-3.3,6.3h-0.7v1.8h15.3v-1.8h-0.7
		c-2.9,0-3.3-1.3-3.3-6.3v-14.3l4.9,0c3.5,0.2,5.3,4.5,7.3,9.4c1.4,3.5,2.9,7.2,5.3,9.9c1.7,2,4.5,3.1,7.9,3.1h7.7v-1.8h-0.7
		C1078.4,194.1,1075,190.1,1073.4,187.7 M1055.9,171.7h-5.4v-14.4c0.1-5,0.5-6.4,3.3-6.4h2.1c3.5,0,8.7,2.8,8.7,10.4
		C1064.5,169.5,1059.1,171.7,1055.9,171.7"/>
	<path class="st0" d="M1088.5,150.9h0.7c2.7,0,3.3,1.2,3.3,6.4v30.5c0,5.2-0.6,6.4-3.3,6.4h-0.7v1.8h15.3v-1.8h-0.7
		c-2.9,0-3.3-1.4-3.3-6.4v-30.5c0.1-5,0.5-6.4,3.3-6.4h0.7V149h-15.3V150.9z"/>
	<path class="st0" d="M1140.8,150.9h0.7c4.3,0,7.3,4.7,7.3,11.5v22.1l-27.4-35.4h-11.9v1.8h0.7c1.9,0,4.2,1.7,6.8,4.8v27
		c0,6.8-3,11.5-7.2,11.5h-0.7v1.8h17.8v-1.8h-0.7c-4.3,0-7.3-4.7-7.3-11.5v-24.7c3.2,4,11.3,14.4,18.1,23.1
		c7.2,9.2,11.4,14.5,11.6,14.7l0.2,0.2h1.9v-33.6c0-6.8,3-11.5,7.2-11.5h0.7V149h-17.8V150.9z"/>
	<path class="st0" d="M1195.2,150.9h0.7c2.7,0,3.3,1.2,3.3,6.4v14.4h-23.5v-14.4c0-5.2,0.6-6.4,3.3-6.4h0.7V149h-15.3v1.8h0.7
		c2.9,0,3.3,1.4,3.3,6.4v30.5c-0.1,5-0.5,6.4-3.3,6.4h-0.7v1.8h15.3v-1.8h-0.7c-2.7,0-3.3-1.2-3.3-6.4v-14.3h23.5v14.3
		c0,5.2-0.6,6.4-3.3,6.4h-0.7v1.8h15.3v-1.8h-0.7c-2.9,0-3.3-1.4-3.3-6.4v-30.5c0.1-5,0.5-6.4,3.3-6.4h0.7V149h-15.3V150.9z"/>
	<path class="st0" d="M1268.1,170.3L1268.1,170.3c-0.6-7-3.7-12.8-8.9-16.8c-4.9-3.8-11.4-5.5-18.3-4.9c-6.9,0.6-13,3.4-17.2,8
		c-4.4,4.8-6.4,11.1-5.8,18.1c1.2,13,11.3,21.8,24.4,21.8c0.9,0,1.8,0,2.8-0.1c6.9-0.6,13-3.4,17.2-8
		C1266.7,183.5,1268.7,177.3,1268.1,170.3 M1256.5,187.1c-2.9,4.4-6.9,7.1-11.5,7.5c-9.5,0.8-18-8.4-19.1-20.5
		c-0.6-6.9,1.2-13.5,5.1-18.1c2.8-3.3,6.2-5.2,10.1-5.5c0.4,0,0.8-0.1,1.2-0.1c3.4,0,6.7,1.3,9.7,3.7c4.6,3.9,7.6,10,8.2,16.9v0
		C1260.7,176.9,1259.4,182.6,1256.5,187.1"/>
	<path class="st0" d="M1025.1,264.2c0-7.8-7.2-11.8-14.1-15.6c-5.9-3.3-11.5-6.4-11.5-11.5c0-6.4,4.6-8.6,8.5-8.6
		c7.5,0,12.9,6.1,12.9,14.4v0.7h1.8v-18.8h-1.8v0.7c0,1.6-0.3,2.7-0.8,3.1c-0.4,0.3-1.1,0.3-2.1,0c-0.7-0.2-1.4-0.4-2.1-0.6
		c-2.4-0.7-5-1.4-8.1-1.4c-7.5,0-15,3.9-15,12.8c0,8,7,11.9,13.8,15.7c5.8,3.3,11.4,6.4,11.4,11.8c0,5.2-4,8.9-9.8,8.9
		c-10.2,0-14.7-10.4-14.7-14.4v-0.7h-1.8v18.8h1.8v-0.7c0-1.2,0.3-2.1,0.8-2.5c1-0.7,2.8-0.3,4.1,0.1c2.1,0.5,6,1.3,9.8,1.3
		C1018.6,277.6,1025.1,272.5,1025.1,264.2"/>
	<path class="st0" d="M1062.1,275.1h-0.7v1.8h15.8v-1.8h-0.7c-3.5,0-5.2-4.1-6.8-8.2c-1.7-4.1-13.9-36-14-36.4l-0.2-0.5h-1.6
		l-13.9,35.5c-2.3,6-5.1,8.9-9.2,9.6l-0.6,0.1v1.7h15.3v-1.8h-0.7c-0.9,0-1.7-0.4-2.2-1.2c-1.4-2-1.4-6.3,0-10.2
		c0.2-0.5,0.9-2.3,1.9-4.8h14.6l0.7,1.8c1.6,4.3,3,8,3.6,9.5c0.6,1.6,1.3,3.8,0.8,4.5C1063.8,275,1063.2,275.1,1062.1,275.1
		 M1045.1,257.1c1.9-4.9,4.5-11.6,6.6-17c1.2,3.2,3.9,10.2,6.5,17H1045.1z"/>
	<path class="st0" d="M1082.5,275.1h-0.7v1.8h32.7l3.1-12.4h-1.8l-0.2,0.4c-1.4,3.1-5.3,10.2-11.9,10.2h-7.4c-2.9,0-3.3-1.4-3.3-6.3
		v-30.5c0.1-5,0.5-6.4,3.3-6.4h0.7v-1.8h-15.3v1.8h0.7c2.7,0,3.3,1.2,3.3,6.4v30.6C1085.9,274,1085.3,275.1,1082.5,275.1"/>
	<path class="st0" d="M1156.6,264.9c-1.4,3.1-5.3,10.2-11.9,10.2h-7.4c-2.9,0-3.3-1.4-3.3-6.4v-14.2h4c4.6,0,8.3,3.2,8.3,7.2v0.7
		h1.8v-17.8h-1.8v0.7c0,4-3.7,7.2-8.3,7.2h-4v-14.4c0.1-5,0.5-6.4,3.3-6.4h5.4c6.4,0,9.7,4.5,11.4,8.2l0.2,0.4h1.7l-2.6-10.4h-30.7
		v1.8h0.7c2.7,0,3.3,1.2,3.3,6.4v30.5c0,5.2-0.6,6.4-3.3,6.4h-0.7v1.8h32.8l3-12.4h-1.7L1156.6,264.9z"/>
	<path class="st0" d="M1182.8,250.1c-5.6-3.1-10.9-6-10.9-10.8c0-6,4.3-8.1,8-8.1c7,0,12.1,5.7,12.1,13.6v0.7h1.8v-17.8h-1.8v0.7
		c0,1.5-0.2,2.5-0.7,2.8c-0.3,0.3-1,0.3-1.9,0c-0.7-0.2-1.3-0.4-2-0.6c-2.2-0.6-4.7-1.3-7.6-1.3c-7.1,0-14.2,3.7-14.2,12.1
		c0,7.6,6.6,11.3,13,14.9c5.5,3.1,10.7,6,10.7,11.1c0,4.9-3.8,8.3-9.2,8.3c-9.6,0-13.9-9.8-13.9-13.5v-0.7h-1.8v17.8h1.8v-0.7
		c0-1.2,0.3-1.9,0.8-2.3c0.9-0.7,2.6-0.2,3.8,0.1c2.1,0.5,5.7,1.3,9.3,1.3c9.9,0,16.1-4.9,16.1-12.7
		C1196.1,257.6,1189.3,253.8,1182.8,250.1"/>
	<path class="st0" d="M754.9,178.8c-39.1-21.8-76.1-42.4-76.1-77.1c0-43.3,31.1-58.6,57.7-58.6c49.1,0,86.2,41.4,86.2,96.4v1.8h5.8
		V25.7h-5.8v1.8c0,11.8-2,19-6.1,22.1c-3.3,2.5-8.4,2.7-16.1,0.6c-4.6-1.1-9.2-2.5-14-3.8c-15.8-4.5-32.1-9.1-51.3-9.1
		c-46.9,0-94.2,24.6-94.2,79.6c0,50,44.5,75,87.6,99.1c38.6,21.6,75,42.1,75,78.6c0,35.6-27.2,60.4-66.2,60.4c-2.5,0-5-0.1-7.5-0.3
		v5.9c2.5,0.1,5,0.2,7.5,0.2c66.1,0,107.1-32,107.1-83.5C844.6,228.7,799,203.3,754.9,178.8"/>
	<path class="st0" d="M258.8,307.8c-8.6-12.9-15.7-26.8-22.5-40.2c-14.8-29.3-28.9-57.1-56.5-68.7c44.4-9.3,70.6-38.5,70.6-79.2
		c0-56.8-50.9-82.7-98.2-82.7H24.2v6h1.8C50,43,52.6,57,53,91.4v215.1c-0.5,34.1-3,48-26.9,48h-1.8v6h101v-6h-1.8
		c-23.9,0-26.5-13.9-26.9-48V202.4l37.8,0c26.8,1.6,40.1,34.1,54.2,68.6c10.1,24.7,20.5,50.2,36.8,68.7c11.3,13.4,30.1,20.8,53,20.8
		H329v-6h-1.8C303.3,354.5,279,337.9,258.8,307.8 M138,196.4H96.5v-105C96.9,57,99.5,43,123.4,43H138c25.9,0,64.4,20.4,64.4,76.7
		C202.4,180.3,161.9,196.4,138,196.4"/>
	<path class="st0" d="M531,37h-14.9l-86.4,185.1L329.5,37.9l-0.5-1h-73.8v6h1.8c11.7,0,23.1,6.8,34.7,20.7l6,8.3
		c21.5,35.1,121.5,219.3,122.6,221.3l0.5,1h6.4L540.8,52.1V306c-0.5,34.4-3,48.4-26.9,48.4H512v6h101v-6h-1.8
		c-24.3,0-26.9-15.5-26.9-48.4V91.4c0-32.9,2.7-48.4,26.9-48.4h1.8v-6h-71.5H531z"/>
	<path class="st0" d="M959.7,264.5H958l-0.2,0.4c-1.4,3.1-5.3,10.2-11.9,10.2h-7.4c-2.9,0-3.3-1.4-3.3-6.4v-14.2h4
		c4.6,0,8.3,3.2,8.3,7.2v0.7h1.8v-17.8h-1.8v0.7c0,4-3.7,7.2-8.3,7.2h-4v-14.4c0.1-5,0.5-6.4,3.3-6.4h5.4c6.4,0,9.7,4.5,11.4,8.2
		l0.2,0.4h1.7l-2.6-10.4h-30.7v1.8h0.7c2.7,0,3.3,1.2,3.3,6.4v30.5c0,5.2-0.6,6.4-3.3,6.4h-0.7v1.8h32.8L959.7,264.5z"/>
	<path class="st0" d="M937.5,322.6l-8.2,0l-1.5,3.7l-4,0l8.4-19l2.5,0l8.3,19.1l-4,0L937.5,322.6z M930.6,319.4l5.8,0l-2.9-6.9
		L930.6,319.4z"/>
	<path class="st0" d="M965.4,316.8c0,5.7-4,9.5-10,9.5l-7.3,0l0-19.1l7.3,0C961.4,307.3,965.4,311.1,965.4,316.8 M961.6,316.9
		c0-3.8-2.4-6.3-6.4-6.3l-3.4,0l0,12.4l3.4,0C959.2,323,961.6,320.6,961.6,316.9"/>
	<polygon class="st0" points="987.1,307.3 979.2,326.4 976.8,326.4 968.8,307.3 973,307.3 976.9,317.4 978.1,321.3 979.3,317.4 
		983,307.3 	"/>
	<path class="st0" d="M990.5,316.9c0-5.5,4.3-9.8,10.1-9.8c5.8,0,10,4.2,10,9.8c0,5.6-4.2,9.7-10,9.7
		C994.7,326.7,990.5,322.4,990.5,316.9 M1006.7,316.9c0-3.6-2.6-6.3-6.1-6.4c-3.6,0-6.3,2.7-6.3,6.3c0,3.6,2.6,6.3,6.3,6.3
		C1004.1,323.2,1006.7,320.5,1006.7,316.9"/>
	<path class="st0" d="M1033,317l0,7.5c-1,0.8-3.3,2.2-7.3,2.2c-5.9,0-10.2-4.3-10.2-9.8c0-5.5,4.3-9.8,10.3-9.8
		c3.8,0,5.8,1.4,6.5,1.8l-1.7,3c-0.5-0.3-2.1-1.3-4.7-1.3c-3.8,0-6.6,2.5-6.6,6.3c0,3.8,2.9,6.4,6.5,6.4c1.4,0,2.6-0.3,3.5-0.7
		l0-5.6L1033,317z"/>
	<path class="st0" d="M1050.6,322.8l-8.2,0l-1.5,3.7l-4,0l8.4-19l2.5,0l8.3,19.1l-4,0L1050.6,322.8z M1043.6,319.6l5.8,0l-2.9-6.9
		L1043.6,319.6z"/>
	<path class="st0" d="M1078.4,317c0,5.7-4,9.5-10,9.5l-7.3,0l0-19.1l7.3,0C1074.4,307.5,1078.4,311.3,1078.4,317 M1074.6,317
		c0-3.8-2.4-6.3-6.4-6.3l-3.4,0l0,12.4l3.4,0C1072.2,323.2,1074.6,320.8,1074.6,317"/>
	<path class="st0" d="M1083.5,317.1c0-5.5,4.3-9.8,10.1-9.8c5.8,0,10,4.2,10,9.8c0,5.6-4.2,9.7-10,9.7
		C1087.7,326.8,1083.4,322.6,1083.5,317.1 M1099.7,317.1c0-3.6-2.6-6.3-6.1-6.4c-3.6,0-6.3,2.7-6.3,6.3c0,3.6,2.6,6.3,6.3,6.3
		C1097.1,323.4,1099.7,320.7,1099.7,317.1"/>
	<path class="st0" d="M1108.1,324.5l1.9-3c1.7,1.4,3.6,2,5.6,2c1.7,0,3-0.7,3-2.3c0-1.5-1.1-2.2-3.9-3c-3.2-0.9-5.7-2.1-5.7-5.5
		c0-3.4,2.8-5.6,6.9-5.5c2.8,0,4.9,0.8,6.4,2l-1.7,2.8c-1.3-1-2.8-1.5-4.7-1.5c-1.7,0-3,0.6-3,2.1c0,1.4,1.2,1.8,3.9,2.6
		c3.2,1,5.7,2.2,5.7,5.9c0,3.6-2.7,5.8-6.8,5.8C1112.3,326.8,1110,326,1108.1,324.5"/>
	<path class="st0" d="M1198.5,112.5c-0.1-2.6-1.6-4.2-3.9-4.4c-1.1-0.1-2.2,0.2-3.1,0.9c-0.9,0.7-1.5,1.8-1.5,3
		c-0.1,1.1,0.2,2.2,0.9,3c0.5,0.7,1.3,1.2,2.1,1.4c0.5,1,0.6,2.2-0.1,3.1c-0.2,0-0.4,0-0.6,0l-1-0.1v2.2l0.9,0c0.1,0,0.2,0,0.4,0
		c1.7,0,3.1-0.5,4.1-1.5C1198,118.7,1198.7,116.2,1198.5,112.5"/>
</g>
</svg>
